# xmcd CD database file
#
# Track frame offsets:
#	150
#	14722
#	28909
#	39776
#	59135
#	87122
#	106907
#	128904
#	153088
#	167983
#	180637
#	195019
#	208706
#	224562
#	243289
#	258328
#	284035
#
# Disc length: 4067 seconds
#
# Revision: 1
# Processed by: cddbd v1.5.2PL0 Copyright (c) Steve Scherf et al.
# Submitted via: CDex 1.51
#
DISCID=f30fe111
DTITLE=CHICAGO BLUES HARMONICA - Chicago Blues Session Volume 2
DYEAR=1998
DGENRE=Blues
TTITLE0=Snooky Pryor - Look What You Doin' To Me
TTITLE1=Snooky Pryor - You Better Keep The Arms Around Me
TTITLE2=James Cotton - Decoration Day
TTITLE3=Lester Davenport - Let's Go Party
TTITLE4=Lester Davenport - She's 41 Years Old
TTITLE5=Lester Davenport - When My Troubles End
TTITLE6=Golden ''Big'' Wheller - I'm Ready
TTITLE7=Golden ''Big'' Wheller - Dirty Blues
TTITLE8=Dusty Brown - Say You Love Me
TTITLE9=Dusty Brown - Hey Baby
TTITLE10=Dusty Brown - He Don't Love You
TTITLE11=Little Mac Simmons - Come Back To Me
TTITLE12=Birmingham Jones - Don't Slam That Door
TTITLE13=Birmingham Jones - My Little Girl
TTITLE14=Birmingham Jones - I Was Wondering
TTITLE15=Birmingham Jones - Strange City
TTITLE16=Billy Branch - Take You Down Town
EXTD=YEAR: 1998
EXTT0=
EXTT1=
EXTT2=
EXTT3=
EXTT4=
EXTT5=
EXTT6=
EXTT7=
EXTT8=
EXTT9=
EXTT10=
EXTT11=
EXTT12=
EXTT13=
EXTT14=
EXTT15=
EXTT16=
PLAYORDER=
